<?xml version="1.0" encoding="utf-8"?>
<!-- Generator: Adobe Illustrator 22.1.0, SVG Export Plug-In . SVG Version: 6.00 Build 0)  -->
<svg xmlns="http://www.w3.org/2000/svg" xmlns:xlink="http://www.w3.org/1999/xlink" x="0px" y="0px"
	 viewBox="0 0 100 100" style="enable-background:new 0 0 100 100;" xml:space="preserve">
<style type="text/css">
	.st0{fill:#FD495C;}
</style>
<path class="st0" d="M85.9,2.4L50,38.3L14.1,2.4c-3.2-3.2-8.5-3.2-11.7,0s-3.2,8.5,0,11.7L38.3,50L2.4,85.9c-3.2,3.2-3.2,8.5,0,11.7
	c3.2,3.2,8.5,3.2,11.7,0L50,61.7l35.9,35.9c3.2,3.2,8.5,3.2,11.7,0c3.2-3.2,3.2-8.5,0-11.7L61.7,50l35.9-35.9
	c3.2-3.2,3.2-8.5,0-11.7C94.4-0.8,89.1-0.8,85.9,2.4z"/>
</svg>
