<svg width="74" height="74" fill="none" xmlns="http://www.w3.org/2000/svg"><circle cx="37" cy="37" r="37" fill="#5B569B"/><path fill-rule="evenodd" clip-rule="evenodd" d="M21.6 13a4.6 4.6 0 0 0-4.6 4.6v31.048a4.6 4.6 0 0 0 4.6 4.6h22.999a4.6 4.6 0 0 0 4.6-4.6V17.6a4.6 4.6 0 0 0-4.6-4.6h-23Zm1.15 17.25a2.3 2.3 0 1 0 0 4.599h20.699a2.3 2.3 0 1 0 0-4.6h-20.7Zm-2.3-8.05a2.3 2.3 0 0 1 2.3-2.3h20.699a2.3 2.3 0 1 1 0 4.6h-20.7a2.3 2.3 0 0 1-2.3-2.3Zm2.3 18.399a2.3 2.3 0 1 0 0 4.6h20.699a2.3 2.3 0 1 0 0-4.6h-20.7Z" fill="#F4EBDB"/><path d="M53.212 19.05v5.463c.01.094.029.185.029.282v29.563a3.045 3.045 0 0 1-3.042 3.042h-19.25a2.973 2.973 0 0 1-.354-.036h-5.396c.55 1.05 1.525 2.08 2.539 2.695a6.496 6.496 0 0 0 3.36.94h19.25a6.499 6.499 0 0 0 6.493-6.491V25.945a6.496 6.496 0 0 0-.94-3.357c-.612-1.013-1.64-2.989-2.689-3.538Z" fill="#F4EBDB"/></svg>