<svg width="74" height="74" fill="none" xmlns="http://www.w3.org/2000/svg"><circle cx="37" cy="37" r="37" fill="#5B569B"/><path fill-rule="evenodd" clip-rule="evenodd" d="M22.238 14a4.408 4.408 0 0 0-4.408 4.408v29.755a4.408 4.408 0 0 0 4.408 4.408h22.04a4.408 4.408 0 0 0 4.41-4.408V18.408A4.408 4.408 0 0 0 44.277 14h-22.04Zm1.102 16.53a2.204 2.204 0 0 0 0 4.409h19.837a2.204 2.204 0 0 0 0-4.409H23.34Zm-2.204-7.714c0-1.217.987-2.204 2.204-2.204h19.837a2.204 2.204 0 0 1 0 4.408H23.34a2.204 2.204 0 0 1-2.204-2.204ZM23.34 40.45a2.204 2.204 0 0 0 0 4.408h19.837a2.204 2.204 0 0 0 0-4.408H23.34Z" fill="#F4EBDB"/><path d="M52.533 19.797v5.236c.009.09.028.178.028.27v28.332a2.918 2.918 0 0 1-2.916 2.915H31.197a2.85 2.85 0 0 1-.339-.034h-5.17c.526 1.006 1.461 1.993 2.432 2.582.971.589 2.085.9 3.22.902h18.45a6.228 6.228 0 0 0 6.22-6.221V26.405a6.225 6.225 0 0 0-.9-3.218c-.587-.97-1.572-2.864-2.577-3.39Z" fill="#F4EBDB"/></svg>