<svg width="74" height="74" fill="none" xmlns="http://www.w3.org/2000/svg"><circle cx="37" cy="37" r="37" fill="#5B569B"/><path d="M46.58 27.256a2.227 2.227 0 0 0-3.145 0 2.212 2.212 0 0 0 0 3.137c4.039 4.029 4.039 10.578 0 14.598a2.212 2.212 0 0 0 0 3.138c.437.436 1.003.65 1.574.65.571 0 1.142-.214 1.574-.65 5.773-5.75 5.773-15.122-.002-20.873Z" fill="#F2EAD9"/><path d="M51.825 20.384a2.195 2.195 0 0 0 0 3.12c8.98 8.927 8.98 19.45 0 28.378a2.195 2.195 0 0 0 0 3.12c.436.434 1 .647 1.57.647.57 0 1.14-.213 1.57-.647 10.713-10.65 10.713-23.98 0-34.63a2.24 2.24 0 0 0-3.14.012ZM19.13 46.562V27.344h-3.943C12.875 27.344 11 29.3 11 31.695V42.21c0 2.402 1.88 4.35 4.187 4.35l3.943-.002v.005ZM35.033 56.913c.36 0 .727-.08 1.08-.237a2.559 2.559 0 0 0 1.496-2.345V19.584c0-1.02-.575-1.915-1.495-2.345a2.527 2.527 0 0 0-2.737.384L22.162 27.29h-.075v19.342h.075l11.215 9.655c.477.413 1.06.627 1.656.627Z" fill="#F2EAD9"/></svg>