<svg width="74" height="74" fill="none" xmlns="http://www.w3.org/2000/svg"><circle cx="37" cy="37" r="37" fill="#5B569B"/><path d="M40.473 15a1.626 1.626 0 0 0-1.256.56L25.37 27.678h-8.575a1.626 1.626 0 0 0-1.255.56A1.753 1.753 0 0 0 15 29.541v14.915a1.86 1.86 0 0 0 .538 1.343 1.66 1.66 0 0 0 1.255.522h8.575l13.848 12.155a1.661 1.661 0 0 0 1.256.523 1.796 1.796 0 0 0 1.291-.523 1.94 1.94 0 0 0 .503-1.342v-40.27a1.8 1.8 0 0 0-.503-1.305 1.718 1.718 0 0 0-1.291-.56ZM52.593 27.166a2.202 2.202 0 0 0 0 1.751c2.424 5.627 2.44 11 .046 16.118a2.103 2.103 0 0 0-.091 1.706 2.184 2.184 0 0 0 1.181 1.257 2.17 2.17 0 0 0 1.727.09 2.185 2.185 0 0 0 1.318-1.167c2.97-6.256 2.97-12.84 0-19.755a2.021 2.021 0 0 0-.477-.74 2.051 2.051 0 0 0-.75-.472 2.164 2.164 0 0 0-1.727 0 2.051 2.051 0 0 0-.75.471c-.212.21-.374.463-.477.741Z" fill="#F4EBDB"/></svg>