<svg width="50" height="50" fill="none" xmlns="http://www.w3.org/2000/svg">
  <path fill-rule="evenodd" clip-rule="evenodd" d="M8.59978 0C6.05939 0 4 2.05939 4 4.59978V35.6483c0 2.5404 2.05939 4.5998 4.59978 4.5998H31.5987c2.5404 0 4.5998-2.0594 4.5998-4.5998V4.59978C36.1985 2.05939 34.1391 0 31.5987 0H8.59978zm1.14994 17.2492c-1.27019 0-2.29989 1.0297-2.29989 2.2999s1.0297 2.2999 2.29989 2.2999H30.4487c1.2702 0 2.2999-1.0297 2.2999-2.2999s-1.0297-2.2999-2.2999-2.2999H9.74972zM7.44983 9.19956c0-1.2702 1.0297-2.29989 2.29989-2.29989H30.4487c1.2702 0 2.2999 1.02969 2.2999 2.29989 0 1.27024-1.0297 2.29984-2.2999 2.29984H9.74972c-1.27019 0-2.29989-1.0296-2.29989-2.29984zM9.74972 27.5987c-1.27019 0-2.29989 1.0297-2.29989 2.2999s1.0297 2.2999 2.29989 2.2999H30.4487c1.2702 0 2.2999-1.0297 2.2999-2.2999s-1.0297-2.2999-2.2999-2.2999H9.74972z" fill="#5E5E5E"/>
  <path d="M41.2123 8.04956v5.46304c.0089.0944.0286.1858.0286.2826V42.358c-.0008.8066-.3216 1.5799-.8919 2.1502-.5704.5704-1.3437.8911-2.1503.892H18.9484c-.1184-.0049-.2365-.0168-.3535-.0358h-5.3957c.5492 1.0502 2.5251 3.0801 3.5385 3.6945 1.0134.6143 2.1755.9398 3.3606.941h19.2504c1.7212-.0018 3.3714-.6863 4.5885-1.9034 1.2171-1.2171 1.9017-2.8673 1.9035-4.5886V14.9452c-.0012-1.1838-.3259-2.3447-.9389-3.3573-.6131-1.0127-2.6412-2.98849-3.6895-3.53834z" fill="#5E5E5E"/>
</svg>
