<svg xmlns="http://www.w3.org/2000/svg" viewBox="0 0 38.23975 46.32178"><defs><style>.cls-1{fill:#5e5e5e;}</style></defs><g id="Layer_2" data-name="Layer 2"><g id="Layer_1-2" data-name="Layer 1"><path class="cls-1" d="M23.9079,0H4.14581A4.14581,4.14581,0,0,0,0,4.14581V32.98407a4.14581,4.14581,0,0,0,4.14581,4.14581H23.9079a4.14581,4.14581,0,0,0,4.14581-4.14581V4.14581A4.14581,4.14581,0,0,0,23.9079,0Zm-.31958,23.64728a.69524.69524,0,0,1-.69525.69519H5.16064a.69524.69524,0,0,1-.69525-.69519V22.20306a.69526.69526,0,0,1,.69525-.69525H22.89307a.69526.69526,0,0,1,.69525.69525Zm0-7.19489a.69521.69521,0,0,1-.69525.69519H5.16064a.69521.69521,0,0,1-.69525-.69519V15.00818a.69526.69526,0,0,1,.69525-.69525H22.89307a.69526.69526,0,0,1,.69525.69525Zm0-7.19537a.69526.69526,0,0,1-.69525.69525H5.16064A.69526.69526,0,0,1,4.46539,9.257V7.81281a.69525.69525,0,0,1,.69525-.6952H22.89307a.69525.69525,0,0,1,.69525.6952Z"/><path class="cls-1" d="M35.2149,10.84143V15.5921c.0077.08216.02485.16162.02485.24579V40.67627a2.6482,2.6482,0,0,1-2.64551,2.64551H15.854a2.5934,2.5934,0,0,1-.30737-.03107H10.85449A5.64854,5.64854,0,0,0,15.854,46.32178H32.59424a5.65147,5.65147,0,0,0,5.64551-5.64551V15.83789A5.64858,5.64858,0,0,0,35.2149,10.84143Z"/></g></g></svg>