<svg width="220" height="190" viewBox="0 0 220 190" fill="none" xmlns="http://www.w3.org/2000/svg">
<path d="M122.717 110.486C96.0182 132.138 70.3849 149.919 50.5302 161.165C40.5993 166.791 32.1347 170.769 25.716 172.784C22.5041 173.792 19.8342 174.299 17.7636 174.289C15.6853 174.279 14.3054 173.751 13.5347 172.801C12.7639 171.851 12.5325 170.392 12.952 168.356C13.37 166.328 14.4175 163.82 16.0673 160.886C19.3644 155.022 25.0049 147.561 32.5597 139.006C47.6637 121.902 70.3553 100.493 97.0546 78.841C123.754 57.1888 149.387 39.4075 169.242 28.1613C179.173 22.5362 187.637 18.558 194.056 16.543C197.268 15.5347 199.938 15.0277 202.008 15.0376C204.087 15.0475 205.467 15.5752 206.237 16.5256C207.008 17.476 207.239 18.9352 206.82 20.9707C206.402 22.9987 205.355 25.5064 203.705 28.4408C200.408 34.305 194.767 41.7655 187.212 50.3207C172.108 67.4249 149.417 88.8335 122.717 110.486Z" stroke="black"/>
</svg>
