<svg xmlns="http://www.w3.org/2000/svg" viewBox="0 0 48.41112 49"><defs><style>.cls-1{fill:#5e5e5e;}</style></defs><g id="Layer_2" data-name="Layer 2"><g id="Layer_1-2" data-name="Layer 1"><path class="cls-1" d="M28.02632,0a1.77048,1.77048,0,0,0-1.38158.62288L11.40789,14.11864H1.97368a1.77044,1.77044,0,0,0-1.38157.62289A1.95336,1.95336,0,0,0,0,16.19492V32.80508A2.093,2.093,0,0,0,.59211,34.3a1.82724,1.82724,0,0,0,1.38157.58136h9.43421L26.64474,48.41865A1.82725,1.82725,0,0,0,28.02632,49a1.9561,1.9561,0,0,0,1.42105-.58135A2.1755,2.1755,0,0,0,30,46.92373V2.07627A2.02667,2.02667,0,0,0,29.44737.62288,1.89154,1.89154,0,0,0,28.02632,0Z"/><path class="cls-1" d="M41.36112,13.54844a2.47617,2.47617,0,0,0,0,1.95q4,9.4.05,17.95a2.36521,2.36521,0,0,0-.1,1.9,2.43725,2.43725,0,0,0,1.3,1.4,2.36525,2.36525,0,0,0,1.9.1,2.43155,2.43155,0,0,0,1.45-1.3q4.9-10.45,0-22a2.25319,2.25319,0,0,0-1.35-1.35,2.35625,2.35625,0,0,0-1.9,0,2.25322,2.25322,0,0,0-1.35,1.35"/></g></g></svg>